<?xml version="1.0" encoding="UTF-8"?>
<svg id="Layer_2" data-name="Layer 2" xmlns="http://www.w3.org/2000/svg" viewBox="0 0 600 133.37">
  <defs>
    <style>
      .cls-1 {
        fill: #1b62f8;
      }
    </style>
  </defs>
  <g id="logotype">
    <g id="black">
      <path class="cls-1" d="M262.02,9.71c-1.46-2.58-3.42-4.85-5.76-6.68C253.52.99,250.17-.07,246.75,0c-3.41-.06-6.75.98-9.51,2.97-2.39,1.79-4.38,4.06-5.85,6.65l-56.94,94.49,24.15,23.04,47.37-79.98,20.24,33.85h-30.26l-13.72,23.64,58.08.12,16.24,27.12h39.35L262.02,9.71Z"/>
      <path class="cls-1" d="M406.78.65v77.82L333.57,6.17c-1.78-1.84-3.87-3.36-6.17-4.47-2.19-1.01-4.58-1.54-7-1.54-2.34-.06-4.67.39-6.82,1.33-2.14.94-4.05,2.34-5.59,4.11-2.98,3.66-4.52,8.28-4.33,12.99v49.11l32.03,53.36V54.24l72.89,72.96c4.12,4.09,8.76,6.17,13.81,6.17,2.28.04,4.54-.41,6.62-1.33,2.08-.92,3.93-2.29,5.43-4,2.9-3.3,4.38-7.72,4.38-13.11V.65h-32.03Z"/>
      <path class="cls-1" d="M595.32,39.82c-2.95-7.63-7.47-14.57-13.28-20.35-5.81-5.78-12.78-10.29-20.45-13.22-8.24-3.17-17.01-4.75-25.84-4.66h-28.85c-8.61-.07-17.15,1.48-25.18,4.57-7.58,2.95-14.49,7.39-20.31,13.05-5.87,5.78-10.46,12.72-13.48,20.36-3.26,8.27-4.89,17.08-4.8,25.97-.07,8.92,1.54,17.78,4.74,26.11,3.01,7.84,7.56,15.01,13.37,21.1,5.77,5.97,12.67,10.74,20.3,14.05,8.01,3.47,16.67,5.22,25.41,5.15h28.83c12.88.2,25.5-3.56,36.15-10.77,10.65-7.21,18.8-17.51,23.34-29.5,3.2-8.33,4.81-17.19,4.74-26.11.1-8.8-1.49-17.54-4.68-25.75ZM535.77,99.06h-28.87c-4.23.04-8.43-.79-12.32-2.43-3.64-1.54-6.93-3.8-9.66-6.65-2.79-2.96-4.96-6.45-6.39-10.26-1.6-4.22-2.4-8.71-2.36-13.22-.06-4.5.73-8.98,2.34-13.18,1.44-3.72,3.61-7.12,6.37-10.01,2.73-2.8,6.01-5.03,9.64-6.53,3.93-1.58,8.14-2.36,12.37-2.29h28.87c4.33-.05,8.63.76,12.65,2.38,3.72,1.48,7.08,3.71,9.87,6.56,2.79,2.85,4.95,6.25,6.34,9.99,1.61,4.19,2.41,8.63,2.36,13.11.04,4.51-.76,9-2.36,13.22-1.43,3.8-3.62,7.27-6.44,10.2-2.8,2.86-6.14,5.13-9.84,6.68-3.99,1.65-8.27,2.47-12.59,2.41Z"/>
      <path class="cls-1" d="M130.45,62.98L195.6,1.62h-57.26l-36.52,34.4,28.41,26.75.22.21Z"/>
      <path class="cls-1" d="M130.24,70.76l-28.41,26.76,36.52,34.39h57.26l-65.15-61.35-.22.21Z"/>
      <path class="cls-1" d="M57.26,1.62H0l69.16,65.15L0,131.91h57.26l69.18-65.14L57.26,1.62Z"/>
    </g>
  </g>
</svg>